<?xml version="1.0" encoding="utf-8"?>
<!-- Svg Vector Icons : http://www.onlinewebfonts.com/icon -->
<!DOCTYPE svg PUBLIC "-//W3C//DTD SVG 1.1//EN" "http://www.w3.org/Graphics/SVG/1.1/DTD/svg11.dtd">
<svg version="1.1" xmlns="http://www.w3.org/2000/svg" xmlns:xlink="http://www.w3.org/1999/xlink" x="0px" y="0px" viewBox="0 0 1000 1000" enable-background="new 0 0 1000 1000" xml:space="preserve">
<metadata> Svg Vector Icons : http://www.onlinewebfonts.com/icon </metadata>
<g><g><g><path d="M484.3,456c-6.6-27.7-18.9-46.4-33-46.4V595c14.1,0,26.4-18.7,33-46.4v46.5h341.1v-32.6H589.6c-17,0-30.8-13.8-30.8-30.8c0-17,13.8-30.8,30.8-30.8h235.9v-10.5H580.8c-3.9,0-7-3.1-7-7s3.1-7,7-7h244.6v-69.8H484.3V456z"/><path d="M847.5,404.9v186.6c78.7,0,142.5-41.8,142.5-93.3C990,446.7,926.2,404.9,847.5,404.9z"/><rect x="20.5" y="410.2" width="331.3" height="14"/><rect x="149.5" y="473" width="240.7" height="13.9"/><rect x="161.7" y="502.7" width="158.7" height="14"/><rect x="10" y="544.5" width="296.5" height="13.9"/></g></g><g></g><g></g><g></g><g></g><g></g><g></g><g></g><g></g><g></g><g></g><g></g><g></g><g></g><g></g><g></g></g>
</svg>